<svg width="110" height="123" xmlns="http://www.w3.org/2000/svg" xml:space="preserve" enable-background="new 0 0 944 1024" version="1.1">

 <g>
  <title>Layer 1</title>
  <path id="svg_11" d="m19.02087,9.65108c7.52643,-0.17565 12.78434,3.1728 17.19312,8.4147c5.83966,6.94316 6.8703,7.5768 14.60782,2.726c17.36072,-10.88376 37.67535,-12.72514 56.40323,-19.35866c0.92288,-0.3269 1.94305,-0.60576 3.03424,0.57059c-0.80939,4.38571 -5.50995,5.59134 -7.84482,8.81265c2.89938,1.13815 7.20905,-0.53412 8.44021,3.57857c0.98881,3.30296 -2.73431,4.07767 -4.39517,5.94722c5.1612,4.32655 4.76642,5.35498 -3.5408,8.58067c4.52054,4.73503 -0.91015,5.52255 -3.3009,7.98017c2.02054,4.07031 0.23648,6.39273 -4.00244,7.25147c-1.53217,0.31041 -2.18277,1.25174 -2.52375,2.69248c-0.40899,1.72829 -1.64465,2.94719 -3.18936,3.64505c-3.42166,1.54585 -6.54461,3.20976 -7.20315,7.47697c-0.17704,1.14711 -1.46524,1.78426 -2.59082,2.16091c-2.32154,0.77681 -4.16803,1.9563 -4.91037,4.50639c-0.2099,0.72116 -1.02219,1.83209 -1.525,1.81447c-4.48114,-0.15703 -6.35113,4.38776 -10.41137,5.56888c-2.96424,0.86232 -5.08692,1.37771 -7.61536,-0.21965c-4.10437,12.21806 -8.02402,24.20367 -7.3765,37.12929c0.19092,3.81063 0.1182,7.65069 -0.85882,11.41696c-0.49121,1.89358 -1.0957,3.62625 -3.33563,3.75261c-2.04511,0.11537 -2.97416,-1.4558 -3.34723,-3.11716c-1.0412,-4.63669 -5.5419,-6.38799 -8.09278,-9.78236c-1.60525,-2.1361 -1.84201,-3.49076 -0.71179,-5.70098c2.77661,-5.43005 3.74524,-11.29689 3.93271,-17.35976c0.08899,-2.87835 -0.95908,-4.74378 -3.57465,-5.89875c-6.38852,-2.82099 -11.59439,-7.14116 -15.72683,-12.74756c-1.50492,-2.04167 -3.56977,-2.77487 -5.9664,-3.18649c-3.11029,-0.53421 -3.58536,-2.62945 -1.51169,-4.55323c1.75223,-1.62559 2.0856,-3.07907 1.6178,-5.2066c-1.21698,-5.53481 -1.7493,-11.06876 -1.11463,-16.80348c0.8653,-7.81925 -0.4692,-9.25454 -9.13479,-10.92212c4.55329,-3.97818 4.23425,-9.69431 6.78524,-14.16094c2.38788,-4.18101 6.87015,-4.87847 11.79068,-5.00831z" fill="#000000"/>
 </g>
</svg>